<?xml version="1.0" standalone="no"?>
<!DOCTYPE svg PUBLIC "-//W3C//DTD SVG 20010904//EN"
 "http://www.w3.org/TR/2001/REC-SVG-20010904/DTD/svg10.dtd">
<svg version="1.0" xmlns="http://www.w3.org/2000/svg"
 width="500.000000pt" height="500.000000pt" viewBox="0 0 500.000000 500.000000"
 preserveAspectRatio="xMidYMid meet">

<g transform="translate(0.000000,500.000000) scale(0.100000,-0.100000)"
fill="#000000" stroke="none">
<path d="M2505 3916 c-15 -12 -46 -15 -128 -16 -103 0 -147 -9 -147 -30 0 -6
10 -10 23 -11 12 0 31 -4 42 -8 18 -8 16 -11 -18 -31 l-38 -23 6 -56 c11 -95
8 -92 65 -68 42 18 54 19 88 9 52 -16 88 -46 112 -93 26 -49 28 -85 3 -49 -29
43 -48 50 -56 21 -9 -36 -56 -56 -125 -55 l-65 2 6 -55 c5 -52 50 -163 65
-163 4 0 13 14 21 31 19 44 65 69 129 69 46 0 58 -4 83 -29 63 -63 26 -167
-91 -252 -57 -42 -207 -129 -222 -129 -4 0 17 34 47 76 66 91 70 119 20 140
-72 30 -141 13 -256 -62 -39 -26 -84 -67 -108 -99 -61 -81 -61 -83 -1 -77 l51
5 -62 -59 c-60 -57 -159 -179 -159 -195 0 -5 19 -18 41 -30 42 -21 100 -23
143 -4 31 14 1 -32 -34 -50 -41 -21 -81 -19 -148 9 -32 12 -74 26 -93 30 -45
8 -114 -13 -170 -51 -24 -17 -62 -36 -83 -43 -48 -15 -165 -8 -177 11 -5 8 -6
52 -3 99 6 75 4 91 -14 127 -22 41 -74 93 -95 93 -8 0 -12 -18 -13 -48 0 -28
-12 -77 -28 -116 -46 -116 -44 -197 7 -253 l20 -22 -27 -59 c-37 -84 -35 -129
10 -188 44 -57 64 -103 64 -144 0 -16 4 -30 8 -30 4 0 27 19 50 43 38 39 42
47 40 90 -2 37 2 52 20 70 20 19 35 22 118 25 78 3 108 0 166 -18 38 -13 79
-31 91 -41 21 -18 21 -20 4 -30 -25 -15 -67 -58 -67 -69 0 -15 36 -30 73 -30
43 0 133 26 174 51 l31 19 30 -30 c17 -16 36 -30 44 -30 21 0 76 37 88 59 9
19 8 21 -14 21 -33 0 -61 40 -52 76 8 31 77 107 132 145 60 41 137 69 208 74
56 5 59 4 31 -7 -79 -33 -133 -85 -179 -175 -33 -65 -14 -121 52 -149 56 -24
192 -28 307 -10 160 24 175 32 211 107 38 78 105 146 179 183 56 27 155 46
155 30 0 -5 -28 -25 -61 -44 -80 -46 -159 -123 -190 -185 -33 -68 -33 -169 -1
-240 40 -87 97 -152 187 -211 45 -30 89 -62 96 -70 22 -27 15 -79 -15 -119
-58 -76 -172 -124 -400 -170 -183 -36 -250 -76 -295 -175 -27 -59 -27 -114 -1
-140 26 -26 40 -25 40 1 0 29 34 83 66 104 33 21 39 14 25 -26 -6 -18 -11 -45
-11 -60 0 -27 3 -29 38 -28 20 0 55 3 77 7 40 7 40 8 56 72 13 56 17 62 26 45
6 -11 13 -37 17 -57 8 -44 12 -45 106 -23 569 133 955 540 1055 1114 19 106
19 131 0 131 -18 0 -39 -31 -59 -85 -8 -22 -19 -53 -25 -68 l-11 -28 -41 35
c-51 43 -86 52 -133 32 -69 -29 -96 -118 -56 -184 23 -38 40 -42 40 -9 0 25
33 67 53 67 27 0 57 -41 57 -78 0 -27 -84 -119 -131 -142 -143 -73 -226 57
-135 212 32 55 41 116 28 188 -9 49 -8 59 13 100 33 66 56 89 94 96 l33 7 -7
-41 c-3 -23 -4 -51 0 -62 l7 -22 25 24 c34 30 63 94 63 138 0 41 -23 80 -48
80 -43 1 -43 14 2 117 53 119 94 254 102 337 7 77 -12 139 -71 221 -53 75
-210 230 -231 230 -29 0 -57 -90 -58 -180 0 -96 26 -159 102 -245 27 -30 51
-62 54 -71 8 -20 -5 -80 -33 -155 l-22 -58 -23 51 c-34 78 -94 108 -157 78
-49 -23 -73 -75 -58 -125 12 -41 54 -86 70 -75 6 3 11 17 11 31 0 32 27 32 42
-1 14 -30 -3 -118 -30 -152 l-17 -22 -58 39 c-176 119 -409 105 -624 -37 l-52
-35 -52 28 c-28 16 -61 41 -75 56 -30 37 -47 100 -39 147 11 63 65 134 65 85
0 -58 90 -120 189 -130 l61 -7 -20 44 c-45 100 -10 203 77 228 38 11 89 -9 98
-39 9 -28 -10 -49 -27 -32 -18 18 -42 15 -62 -7 -15 -17 -16 -25 -7 -54 16
-47 52 -78 99 -84 55 -7 169 28 224 70 79 61 122 190 108 327 l-5 53 -38 -46
c-53 -64 -131 -102 -198 -94 -63 8 -141 50 -176 96 -37 49 -44 141 -13 189 51
82 169 68 170 -20 0 -31 -11 -36 -30 -13 -32 39 -87 2 -74 -50 17 -68 117 -86
211 -40 28 14 74 49 102 76 156 157 111 311 -127 437 -145 77 -286 116 -457
127 -83 6 -104 4 -120 -9z m218 -107 c26 -6 47 -15 47 -20 0 -17 -74 -29 -115
-18 -47 13 -95 39 -95 52 0 10 88 2 163 -14z"/>
<path d="M2047 3846 c-23 -34 -60 -52 -127 -60 -140 -18 -221 -66 -256 -150
-16 -39 -23 -45 -58 -50 -62 -10 -134 -46 -165 -81 -18 -20 -33 -54 -40 -86
-13 -59 -48 -111 -93 -139 l-30 -18 28 -15 c76 -39 138 -30 195 29 41 43 84
67 107 60 15 -5 17 -24 15 -178 -1 -126 -6 -188 -17 -228 -19 -65 -18 -175 2
-175 7 0 28 35 47 79 18 43 49 103 67 133 49 83 157 187 249 240 l81 47 -29
14 c-38 19 -111 90 -130 127 -25 47 -33 97 -22 137 7 28 25 49 74 88 102 82
150 167 127 229 l-8 23 -17 -26z"/>
<path d="M2255 3604 c-102 -39 -141 -41 -171 -13 l-24 22 0 -35 c0 -20 8 -46
19 -59 16 -20 29 -24 73 -24 47 0 59 5 99 37 51 42 87 58 132 58 l32 1 -24 19
c-30 26 -52 25 -136 -6z"/>
<path d="M2053 2026 c-16 -13 -42 -48 -58 -78 -25 -44 -30 -64 -30 -124 0 -66
2 -73 33 -108 33 -38 39 -64 22 -96 -11 -21 -60 -40 -104 -40 -68 0 -192 98
-309 243 -82 101 -121 127 -196 127 -69 0 -141 -35 -141 -68 0 -9 6 -12 17 -8
30 12 101 19 120 12 14 -6 6 -13 -37 -37 -84 -46 -86 -49 -60 -100 13 -24 24
-46 26 -47 1 -2 32 11 69 29 36 17 68 29 72 25 4 -3 -17 -31 -47 -61 -63 -64
-66 -55 63 -187 141 -143 276 -230 410 -265 198 -50 521 75 732 285 69 69 119
141 150 215 15 36 15 37 -5 37 -12 0 -45 -26 -80 -62 -51 -54 -60 -60 -60 -40
0 32 -43 72 -78 72 -36 0 -72 -37 -72 -74 0 -26 1 -26 21 -12 25 17 49 11 49
-13 0 -28 -45 -62 -88 -68 -83 -11 -107 73 -45 161 19 26 62 61 126 101 53 33
116 79 139 102 l42 42 -74 -26 c-66 -24 -90 -27 -195 -27 -105 0 -130 3 -200
28 -44 15 -103 41 -132 57 l-51 29 -29 -24z"/>
</g>
</svg>
